P2
64 64
255
19 17 19 19 17 19 19 19 19 19 19 20 19 18 19 20 19 19 20 20 20 20 20 20 
19 19 20 19 19 19 20 20 20 19 19 20 20 20 20 20 20 20 19 19 20 19 18 18 
18 19 21 20 20 19 19 19 19 19 18 18 19 18 18 19 19 18 19 19 18 19 19 18 
20 19 19 19 19 20 19 19 19 19 19 19 20 20 19 19 19 19 19 19 19 19 19 19 
19 20 19 19 19 19 19 19 19 19 19 19 20 19 19 18 19 19 19 20 19 19 19 19 
19 19 18 19 19 18 18 19 19 19 19 19 19 19 19 19 19 19 19 19 19 19 19 19 
20 19 19 19 20 20 19 19 19 19 19 19 19 20 19 18 19 19 19 19 19 19 19 20 
19 19 19 19 19 19 18 19 20 19 19 19 19 20 19 19 19 19 19 19 19 19 19 19 
19 19 19 19 19 19 19 19 19 19 19 19 19 19 19 19 19 19 19 19 20 20 19 18 
18 19 19 19 19 19 19 19 20 19 19 19 19 20 19 19 20 20 19 19 19 19 19 19 
19 19 19 20 20 19 19 19 19 19 19 19 19 19 19 19 18 19 18 19 19 19 19 19 
19 19 19 19 19 19 19 19 19 19 19 19 19 19 19 19 19 20 20 19 19 19 19 20 
19 19 19 19 19 19 19 19 20 20 19 19 19 19 19 20 19 19 19 20 20 19 19 19 
19 19 19 19 19 19 19 19 18 19 18 19 18 20 20 19 19 19 19 19 19 20 20 19 
19 19 19 19 19 19 19 19 20 20 20 19 19 19 20 20 19 19 19 19 19 19 19 19 
19 19 19 19 19 19 19 19 19 19 19 19 19 19 20 19 19 19 19 19 19 19 19 19 
20 19 19 18 17 19 19 19 20 19 19 18 19 19 19 18 19 20 19 19 19 19 20 20 
19 19 19 19 19 19 20 20 19 19 19 19 19 19 19 19 19 19 19 19 19 19 19 19 
19 19 19 19 19 19 19 19 19 19 19 19 19 19 19 19 20 19 19 18 19 19 19 19 
19 19 19 19 19 18 19 19 18 19 19 19 19 19 19 19 19 19 19 19 19 20 20 20 
19 19 18 19 19 19 19 19 20 19 19 19 19 19 19 19 19 20 19 19 19 19 20 19 
19 20 19 20 20 19 21 19 19 19 19 19 19 19 19 19 19 20 20 19 19 19 18 20 
19 21 19 19 19 19 19 18 19 19 20 21 20 20 20 20 21 20 19 19 19 19 20 20 
20 19 18 19 19 19 19 19 19 19 19 19 19 19 19 18 20 19 19 19 19 19 19 19 
19 19 19 19 19 19 19 18 19 19 19 18 19 19 19 19 19 20 19 18 19 19 20 20 
20 20 20 20 20 20 20 20 21 20 19 19 20 20 20 20 20 19 19 19 18 19 19 19 
19 19 20 19 19 19 19 19 19 19 18 19 19 19 19 19 18 18 19 19 19 19 19 19 
19 19 19 18 19 19 18 18 19 20 19 19 20 20 21 20 20 20 20 20 20 20 20 20 
20 20 20 20 20 20 20 20 20 20 19 18 18 19 20 20 19 18 18 18 19 19 20 19 
19 18 18 19 19 20 19 19 18 18 19 19 19 19 19 20 19 20 20 20 20 19 18 19 
19 20 20 20 20 20 20 20 20 20 20 20 20 20 20 20 19 20 20 20 20 20 20 20 
20 20 20 18 19 19 20 20 20 18 18 18 20 20 20 19 19 19 19 19 19 19 19 19 
19 19 19 19 19 19 19 19 19 19 19 19 19 19 19 19 20 20 20 20 20 20 20 20 
20 20 20 20 20 20 20 20 20 20 20 20 20 20 20 20 21 20 20 19 20 19 19 19 
19 18 19 20 20 19 19 19 19 19 19 19 19 19 19 19 19 19 20 19 19 19 19 19 
20 19 19 19 19 19 20 20 20 20 20 20 20 20 20 20 20 20 20 20 20 20 20 20 
20 20 20 20 20 20 20 20 21 20 20 20 20 20 19 19 19 19 20 20 19 19 19 19 
19 18 19 19 19 19 19 19 19 19 19 19 19 20 19 19 19 19 19 20 20 20 20 20 
20 20 20 20 20 20 20 20 20 19 19 19 19 20 19 19 19 19 19 19 20 20 20 20 
20 20 20 20 20 20 20 20 20 20 20 19 19 19 20 20 19 18 18 19 19 19 19 19 
19 19 19 19 19 19 19 19 19 19 20 20 20 20 20 21 20 20 20 20 20 20 20 20 
21 18 18 18 18 20 18 18 18 18 18 19 20 20 20 20 19 20 20 20 20 20 20 20 
20 20 20 19 19 19 20 19 19 19 19 19 20 19 19 19 19 18 20 19 19 19 20 18 
20 19 19 19 19 20 20 21 20 20 21 21 20 20 20 18 18 18 19 18 18 17 18 18 
19 19 18 18 18 18 18 19 17 19 21 19 20 20 20 20 20 20 20 20 20 20 19 18 
19 19 20 19 19 19 19 19 20 20 20 19 19 19 19 20 20 19 19 19 20 20 20 20 
19 21 21 19 21 19 18 18 18 17 19 19 17 17 18 19 19 20 17 19 18 18 18 18 
18 18 18 19 20 20 20 20 19 20 20 20 20 19 19 19 20 20 20 19 19 19 19 19 
20 19 19 19 19 20 20 20 19 19 19 20 20 20 20 20 20 20 20 20 19 18 18 17 
20 19 20 19 19 18 17 17 17 17 19 19 18 19 18 19 18 18 18 18 19 19 20 20 
20 20 20 20 20 19 19 19 20 20 20 19 19 19 20 20 19 19 18 18 20 20 19 19 
18 19 19 20 20 20 20 20 20 20 19 18 18 18 18 19 19 19 19 16 0 0 0 0 0 
1 0 0 16 20 20 18 20 19 19 18 18 18 20 20 20 20 20 20 20 19 20 19 19 19 
18 19 19 19 19 18 19 19 18 18 19 20 19 19 19 20 19 20 20 20 20 20 20 19 
18 18 18 19 19 18 20 15 1 0 73 124 141 155 162 145 116 66 1 0 15 19 19 
19 19 19 18 18 20 19 20 20 20 20 20 20 20 20 19 18 18 19 19 19 18 18 20 
19 19 20 19 19 20 20 20 20 20 20 20 20 20 20 19 18 17 19 19 19 18 21 1 
0 112 183 222 235 230 225 228 226 225 213 182 112 1 0 19 19 19 19 20 18 
17 19 20 20 20 20 20 19 20 19 20 18 18 19 20 19 19 19 19 20 19 20 20 19 
19 20 20 20 20 20 20 20 20 20 19 18 18 19 19 19 20 1 66 181 224 229 230 
232 226 224 216 222 226 224 232 230 182 71 1 20 19 19 19 19 18 18 20 20 
20 20 20 19 19 19 19 19 18 19 19 20 19 19 18 18 18 19 19 19 20 19 19 19 
20 20 20 20 20 20 19 19 19 19 19 20 1 96 210 235 224 220 207 207 221 221 
222 225 230 227 221 216 231 209 99 1 20 19 19 18 18 18 19 19 19 20 20 
20 19 19 20 20 19 19 18 19 19 19 19 18 18 19 20 19 20 19 18 19 20 21 21 
20 20 19 19 17 18 20 20 0 87 214 239 229 218 207 205 209 216 209 211 227 
232 227 212 179 188 231 220 103 0 19 19 19 18 18 18 17 19 20 20 20 20 
20 20 19 19 19 19 19 18 19 18 19 19 19 20 19 19 20 19 20 20 20 20 20 20 
18 18 18 19 19 4 41 199 235 223 211 208 213 222 217 205 200 211 231 231 
225 224 195 174 218 231 211 67 1 19 19 19 18 18 18 19 20 20 20 20 19 19 
19 19 19 19 19 19 20 19 19 20 19 19 19 19 19 19 20 20 19 20 21 20 18 18 
18 18 18 0 157 232 219 213 218 227 225 225 213 194 180 183 212 221 213 
228 229 219 226 221 231 181 0 16 20 19 19 18 19 20 20 20 20 20 19 19 19 
20 19 19 19 20 20 19 19 19 19 19 19 19 19 20 20 19 20 20 20 19 18 18 19 
19 2 61 212 227 219 214 204 210 219 223 188 163 168 156 161 191 170 165 
194 206 191 193 219 228 118 0 19 19 17 18 19 20 20 20 20 21 20 19 19 20 
20 20 20 19 19 18 18 19 19 19 19 19 19 20 20 20 20 20 19 18 18 19 20 18 
0 134 224 224 221 193 193 198 205 205 184 156 157 154 142 139 133 123 
156 179 153 171 213 233 189 0 15 19 19 18 19 19 20 20 20 20 19 19 19 20 
19 19 19 18 18 18 19 19 20 19 19 20 20 20 20 20 20 20 19 18 19 19 19 17 
0 165 222 226 197 179 187 183 197 205 197 149 146 167 150 120 125 132 
157 179 157 159 203 222 217 73 0 19 19 18 18 18 20 20 20 20 19 20 19 20 
19 19 19 20 19 19 19 19 20 19 18 19 20 20 20 20 20 20 19 18 19 19 18 17 
0 175 227 222 180 174 180 177 198 205 207 173 168 181 155 113 120 135 
199 198 190 174 192 205 222 124 0 19 19 18 18 19 20 20 20 19 19 19 19 
19 19 20 20 19 20 19 20 19 20 19 19 18 19 20 20 20 20 20 19 18 19 19 19 
15 9 178 222 218 189 178 174 186 187 195 204 168 155 174 193 162 139 151 
176 125 187 212 200 213 228 147 0 18 18 18 19 20 20 20 20 19 19 20 19 
20 19 19 19 19 19 20 19 19 20 18 19 20 20 20 20 20 20 20 19 18 19 19 19 
13 11 174 217 211 197 186 182 182 174 187 185 158 152 191 217 149 192 
213 148 62 85 193 207 221 232 159 0 16 18 17 19 20 20 20 20 19 19 20 19 
18 19 19 19 19 19 20 19 19 19 19 19 19 19 19 20 20 20 20 19 18 18 18 19 
14 7 173 217 210 200 192 190 190 195 191 155 182 200 197 195 91 159 216 
201 95 0 119 208 236 238 158 0 18 18 18 19 20 20 20 20 20 20 19 19 19 
19 19 19 19 19 19 19 19 20 20 19 19 19 20 20 20 20 20 19 18 18 17 19 17 
1 155 224 225 198 186 151 201 215 199 153 153 137 92 119 75 94 174 121 
78 18 42 147 230 234 146 0 19 17 20 20 20 20 20 20 20 20 19 19 19 20 19 
19 19 19 19 19 19 19 19 19 20 20 19 19 20 20 20 20 19 18 19 19 17 0 133 
214 219 213 125 57 168 174 175 117 126 49 24 47 30 49 125 98 64 16 1 70 
165 209 124 0 18 18 20 20 20 20 20 20 20 19 18 18 19 20 19 19 19 19 20 
19 20 19 20 19 19 19 19 19 19 20 20 20 20 19 18 17 18 1 94 122 99 197 
135 24 75 86 69 57 60 22 26 15 4 57 99 57 45 22 19 13 61 146 60 9 18 18 
20 20 20 20 20 20 19 19 20 19 19 19 19 19 19 19 19 19 19 19 19 19 19 19 
19 19 20 20 20 20 20 20 20 19 18 19 8 47 42 119 113 77 64 35 1 28 32 26 
21 26 15 34 56 37 29 23 22 19 21 0 7 19 17 19 20 20 20 20 20 19 19 19 
19 19 19 19 19 19 19 19 18 19 19 19 19 20 19 20 20 20 20 20 20 20 20 20 
20 19 18 18 11 61 50 43 83 53 11 22 18 19 19 15 22 19 17 14 65 57 26 21 
21 18 18 16 18 18 19 21 20 20 20 20 20 19 19 19 18 19 19 20 19 20 19 18 
19 19 18 19 19 19 18 19 19 19 19 19 19 19 20 21 20 19 18 18 16 21 40 25 
5 11 21 23 18 19 18 29 22 39 25 7 76 79 28 30 38 22 18 19 20 19 21 20 
20 20 20 20 20 19 19 19 18 19 19 19 18 19 19 19 19 19 19 19 19 19 19 18 
19 18 19 19 19 19 20 21 19 20 19 20 17 19 26 20 17 17 17 18 18 22 23 18 
28 33 20 26 20 30 16 33 24 20 18 19 20 20 20 20 20 20 20 20 19 19 19 19 
19 19 18 19 20 20 19 20 19 19 19 19 19 19 19 19 19 19 19 20 20 20 20 20 
21 20 21 19 19 19 16 19 18 24 23 17 19 29 29 17 19 19 21 19 19 14 19 17 
19 18 19 19 19 20 20 20 20 20 20 20 19 19 19 19 19 19 19 19 19 19 19 19 
19 19 19 19 19 19 19 19 19 19 19 19 20 19 19 18 20 20 20 20 20 20 19 19 
19 21 20 19 18 18 17 17 20 23 19 20 21 19 19 20 19 19 20 20 20 20 20 20 
19 19 19 19 19 20 19 19 19 19 19 19 19 19 19 19 19 19 19 19 18 19 19 19 
19 19 19 20 19 19 19 19 20 21 20 20 20 20 21 19 20 19 18 19 20 19 18 19 
18 20 19 18 17 18 20 20 20 20 20 20 20 19 19 19 19 19 19 19 19 20 19 19 
19 19 19 20 19 19 19 19 19 20 19 19 18 19 19 19 19 19 19 20 19 19 19 20 
19 19 19 19 20 20 20 20 20 20 21 20 20 20 20 20 21 19 18 21 20 20 20 20 
20 20 20 19 19 19 19 19 19 19 19 19 19 19 19 19 20 19 19 19 19 19 19 19 
18 19 20 19 18 18 19 19 19 19 19 19 19 18 19 20 20 19 19 19 20 19 21 20 
20 19 20 20 20 20 20 19 20 21 21 20 20 20 20 20 20 20 19 19 19 19 20 20 
20 19 19 19 19 19 19 19 19 18 18 18 19 20 19 19 19 19 19 19 19 19 19 19 
19 19 19 19 19 19 19 19 19 19 19 18 19 20 20 20 20 19 19 20 20 19 19 19 
19 19 21 20 20 20 19 21 20 19 18 19 19 19 20 20 19 20 19 19 19 19 19 19 
19 19 18 18 18 20 19 19 20 19 20 19 20 19 19 20 19 19 19 19 19 19 19 19 
19 19 19 19 19 19 19 19 19 19 19 19 19 19 19 20 19 21 19 19 19 19 19 19 
19 18 18 20 20 19 19 19 19 19 19 20 19 19 19 19 19 19 19 19 19 19 19 19 
19 19 19 18 18 20 18 19 19 19 19 19 19 19 18 20 20 19 19 19 19 19 19 19 
19 19 19 19 19 20 19 19 19 20 19 19 19 19 19 19 19 18 19 20 19 19 19 19 
19 19 19 19 19 19 18 19 19 20 19 19 19 19 19 19 18 20 19 19 18 18 18 19 
19 19 19 19 18 18 19 19 19 19 20 19 19 19 20 19 19 19 19 19 19 19 19 19 
20 20 19 19 20 20 20 19 18 19 19 19 18 19 19 19 20 19 19 19 19 19 18 18 
20 19 19 19 19 20 19 19 18 18 19 19 19 19 18 20 18 20 19 19 19 19 19 19 
19 19 19 19 19 19 20 19 19 19 19 19 19 19 19 18 18 19 19 19 19 19 19 18 
19 20 19 19 18 19 19 19 19 19 19 19 19 19 18 19 20 19 19 19 19 19 19 20 
19 17 19 18 19 20 19 19 19 19 19 19 19 19 18 19 19 19 19 19 19 19 20 19 
19 19 19 19 19 19 19 19 18 19 19 19 18 19 19 19 19 20 19 19 19 19 19 18 
19 19 19 19 19 19 19 19 19 18 18 19 19 19 20 19 19 19 19 18 19 19 20 19 
19 19 19 20 18 19 19 19 19 19 19 20 20 19 20 20 19 19 18 19 19 18 18 19 
19 19 19 19 18 19 19 19 19 20 19 19 19 19 18 18 19 19 19 19 19 19 20 20 
19 18 18 19 20 20 19 18 19 19 19 18 18 19 19 19 20 19 19 19 19 19 20 19 
19 19 19 19 19 19 20 19 19 19 18 19 19 18 18 19 19 19 19 19 18 19 19 19 
19 19 19 20 20 18 18 19 19 19 19 19 19 19 19 18 19 20 19 19 19 19 18 18 
20 19 19 19 18 19 19 19 19 19 19 19 20 19 19 19 19 19 19 19 19 19 19 19 
18 18 19 19 20 20 19 19 19 19 19 19 19 19 19 19 20 19 19 19 19 19 19 19 
18 19 19 19 18 19 19 19 19 19 19 19 19 19 19 19 19 19 19 20 19 19 20 19 
20 19 19 20 19 19 19 19 19 19 19 19 19 19 19 19 19 18 19 19 19 19 18 19 
19 19 19 20 19 19 19 18 20 19 19 19 19 19 19 19 19 19 19 19 19 19 19 19 
21 20 19 18 19 20 19 19 18 18 19 19 17 18 19 19 19 19 18 19 19 19 18 19 
19 19 19 20 20 19 18 19 19 18 19 18 20 19 19 19 19 19 19 19 18 19 19 19 
18 19 19 19 19 19 20 19 19 19 19 19 19 19 19 19 18 19 20 20 19 19 19 19 
20 19 19 19 19 20 19 18 19 19 19 19 20 19 19 20 20 19 18 18 18 18 19 19 
19 19 19 17 19 19 19 19 19 19 21 19 18 19 19 19 20 19 19 20 19 19 19 19 
18 19 19 19 20 19 19 18 18 19 19 18 19 19 19 19 19 18 19 18 19 19 19 18 
19 19 19 19 19 19 19 19 19 19 19 18 18 18 19 19 19 19 19 18 19 19 19 19 
19 19 19 21 19 19 19 19 20 19 19 19 19 19 19 19 20 19 19 19 19 19 19 19 
19 19 19 18 20 20 19 19 18 18 20 18 19 19 19 19 19 20 19 18 18 19 19 19 
19 19 19 19 19 19 19 19 19 20 19 19 20 19 19 20 19 18 18 19 19 19 19 18 
19 19 19 18 19 19 19 19 19 18 20 19 19 19 19 19 19 19 19 19 19 19 19 19 
19 19 19 19 20 19 19 19 19 19 19 18 19 19 19 19 19 19 18 19 20 20 19 19 
18 18 18 19 19 19 19 19 19 18 19 19 19 19 19 19 19 19 18 18 19 19 19 19 
19 19 18 18 20 18 20 19 19 18 19 19 19 19 19 19 20 19 19 19 19 19 18 19 
19 19 19 19 19 18 19 19 20 19 19 20 19 19 19 19 18 19 19 19 19 19 19 19 
19 19 19 19 19 19 19 19 18 19 19 20 20 19 19 19 20 19 18 18 19 20 20 18 
19 18 19 19 19 20 19 18 19 19 19 19 19 19 19 19 19 19 19 19 19 19 19 19 
19 19 19 19 19 19 19 19 19 19 19 19 19 19 19 19 19 19 19 18 18 19 18 19 
18 19 20 19 19 19 20 19 19 18 18 18 19 20 18 18 19 19 19 19 19 19 19 19 
20 19 19 19 19 19 19 19 19 19 19 18 19 19 19 19 20 19 19 19 19 19 19 18 
20 18 19 19 21 20 19 19 19 19 21 18 19 19 18 20 19 19 19 19 18 19 19 19 
19 20 20 19 20 19 20 20 19 18 18 19 19 19 19 19 
